<?xml version="1.0" encoding="utf-8"?>
<!-- Generator: Adobe Illustrator 24.3.0, SVG Export Plug-In . SVG Version: 6.00 Build 0)  -->
<svg version="1.1" id="Calque_1" xmlns="http://www.w3.org/2000/svg" xmlns:xlink="http://www.w3.org/1999/xlink" x="0px" y="0px"
	 viewBox="0 0 549.5 469.4" style="enable-background:new 0 0 549.5 469.4;" xml:space="preserve">
<style type="text/css">
	.st0{fill:#FFFFFF;}
</style>
<g>
	<g>
		<path class="st0" d="M459.9,438.5c0,10.9-8.8,19.6-19.7,19.6c-10.9,0-19.6-8.8-19.6-19.6s8.8-19.6,19.6-19.6
			C451.1,418.9,459.9,427.6,459.9,438.5"/>
		<path class="st0" d="M517.4,178.5l-54.5,209.8l-20.4-4.7l43.9-232.3C486.4,151.4,507.6,158.9,517.4,178.5"/>
	</g>
	<g>
		<path class="st0" d="M273.4,206c-7.1-27.1-34.8-37.7-49.6-43.4s-24.7-7.2-71.7-12.9c-47-5.7-59.9-13.3-63.7-15.9
			c-3.8-2.6-8.7-8.7-9.5-15.6c-0.8-6.8-1.5-29.2,0-37.6s2.9-31.2,64.3-31.7c14.2-0.1,119.1,3.2,119.1,3.2V16.8c0,0-60.1-3.7-85.3-5
			c-18.1-0.9-49-1.4-70.6,2.9c-12,2.4-32.8,5.6-51.1,18.5C37.5,45.8,32.1,82.9,32.1,98.5s0.2,43.4,20.5,62.6
			c17.4,16.4,59.2,24.5,89.2,27.9c30,3.4,57.3,3.4,75.7,17.9c13.9,10.9,14.8,23,14.8,35.7s-1.1,34.6-17.6,42.5
			c-14.1,6.8-34.9,8-42.5,8c-6.2,0-71.4,0-93.8,0v-60.9c0,0-7.1-7.3-20.7-12.7c-13.6-5.3-25.6-6.4-25.6-6.4V455h46.3V330.7h90.1
			c0,0,41.5-1.5,67.7-12c24.4-9.8,33.9-33.1,35.3-38.2C274.1,270.6,280.6,233.1,273.4,206z"/>
		<path class="st0" d="M237.6,369.7c6.2-0.5,51.7,0,51.7,0v-14c0,0-24.7-2.2-35.7-2.7c-11-0.5-23.3,0.4-29.8,1.8s-18,5.9-21.6,20.3
			c-1.2,4.7-1.1,13.7-1.1,18.5h0v20.4h0c0,4.5-0.2,14.2,1.1,19.1c3.6,14.4,15.2,19,21.6,20.3c6.4,1.4,18.8,2.3,29.8,1.8
			s35.7-2.7,35.7-2.7v-14c0,0-45.5,0.4-51.7,0s-11.9-2.3-14.6-5.6c-2.6-3.3-2.2-9.5-2.2-9.5v-38.4c0,0-0.4-6.2,2.2-9.5
			C225.7,371.9,231.5,370.1,237.6,369.7z"/>
		<path class="st0" d="M384.1,225.1l-0.2-0.6c-4.7-9.9-18-14.9-37.9-14.9c-7.2,0-16.3,0.9-25.7,2.8c-10.7,3.5-16.1,12.4-16.1,26.6
			v42.3c0,8.2,1,13.8,3,17.1c3.9,9.4,17,14,38,14c8.8,0,18.2-1.2,26.3-3.6c9.5-2.9,14.4-12.1,14.4-27.5v-40.7
			C385.9,235.2,385.3,230,384.1,225.1 M367.7,234.5v53.8c0,2.3,0,9.5-18.2,9.5h-8.8c-18.2,0-18.2-7.1-18.2-9.5v-54.6
			c0-2.3,0-9.4,18.2-9.4h8.8C367.7,224.2,367.7,231.7,367.7,234.5"/>
		<path class="st0" d="M178.1,362.9c-6.2-7.3-17.7-10.8-35.1-10.8c-12.3,0-22.3,1.9-29.7,5.6c-7.1,3.4-10.6,11.9-10.6,25.8V455h17.4
			v-43.6h45.6V455h16.6V379c0-5.6-1.3-10.9-4-15.6L178.1,362.9z M140.3,367h4.4c8.8,0.3,13.7,0.9,15.9,1.9c3.6,1.6,5.1,4.6,5.1,19.1
			v8.6h-45.6v-19.2C120.2,374.8,120.2,367,140.3,367"/>
		<polygon class="st0" points="389.5,455.1 389.6,455.1 340.8,394.6 383.6,352.7 361.8,352.7 322.8,388.9 322.8,351.9 305.2,351.9 
			305.2,351.9 305.2,351.9 305.2,455.1 322.8,455.1 322.8,412.1 329.5,405.6 368.8,455.1 		"/>
	</g>
</g>
</svg>
