<?xml version="1.0" encoding="utf-8"?>
<!-- Generator: Adobe Illustrator 24.3.0, SVG Export Plug-In . SVG Version: 6.00 Build 0)  -->
<svg version="1.1" id="Calque_1" xmlns="http://www.w3.org/2000/svg" xmlns:xlink="http://www.w3.org/1999/xlink" x="0px" y="0px"
	 viewBox="0 0 549.53 469.38" style="enable-background:new 0 0 549.53 469.38;" xml:space="preserve">
<style type="text/css">
	.st0{fill:#E4221F;}
</style>
<g>
	<g>
		<path class="st0" d="M459.89,438.5c0,10.85-8.8,19.65-19.66,19.65c-10.85,0-19.65-8.8-19.65-19.65c0-10.85,8.8-19.65,19.65-19.65
			C451.09,418.85,459.89,427.65,459.89,438.5"/>
		<path class="st0" d="M517.4,178.48l-54.48,209.84l-20.42-4.67l43.87-232.28C486.37,151.38,507.62,158.95,517.4,178.48"/>
	</g>
	<g>
		<path d="M273.41,206.04c-7.15-27.09-34.84-37.71-49.64-43.4s-24.66-7.21-71.69-12.89c-47.03-5.69-59.93-13.28-63.72-15.93
			c-3.79-2.65-8.72-8.73-9.48-15.55c-0.76-6.83-1.52-29.21,0-37.55c1.52-8.34,2.92-31.21,64.29-31.67
			c14.22-0.11,119.09,3.22,119.09,3.22V16.82c0,0-60.1-3.68-85.33-4.96c-18.12-0.91-48.96-1.43-70.58,2.87
			c-12,2.39-32.83,5.57-51.07,18.51C37.52,45.85,32.13,82.87,32.13,98.53s0.16,43.39,20.5,62.58
			c17.35,16.36,59.17,24.48,89.18,27.88c30.01,3.4,57.27,3.43,75.69,17.92c13.92,10.95,14.77,22.98,14.77,35.7
			s-1.14,34.55-17.63,42.54c-14.09,6.82-34.93,7.95-42.48,7.95c-6.25,0-71.43,0-93.75,0v-60.93c0,0-7.1-7.33-20.67-12.67
			c-13.57-5.33-25.61-6.45-25.61-6.45v241.94h46.28V330.66h90.14c0,0,41.46-1.51,67.67-12.01c24.35-9.76,33.92-33.09,35.3-38.2
			C274.15,270.65,280.56,233.13,273.41,206.04z"/>
		<path d="M237.62,369.66c6.17-0.48,51.67-0.04,51.67-0.04v-14.03c0,0-24.7-2.18-35.67-2.73c-10.97-0.55-23.31,0.42-29.75,1.78
			c-6.44,1.36-18.01,5.92-21.65,20.33c-1.18,4.69-1.12,13.74-1.09,18.47h-0.01v20.36h0.01c-0.03,4.48-0.16,14.17,1.08,19.09
			c3.64,14.41,15.21,18.96,21.65,20.33c6.44,1.36,18.78,2.33,29.75,1.78c10.97-0.55,35.67-2.73,35.67-2.73v-14.03
			c0,0-45.51,0.44-51.67-0.04c-6.16-0.48-11.95-2.28-14.6-5.6c-2.65-3.32-2.21-9.48-2.21-9.48v-38.38c0,0-0.44-6.16,2.21-9.48
			C225.68,371.93,231.46,370.13,237.62,369.66z"/>
		<path d="M384.1,225.08l-0.2-0.59c-4.7-9.91-17.99-14.93-37.88-14.93c-7.18,0-16.33,0.92-25.67,2.8
			c-10.69,3.49-16.11,12.45-16.11,26.62v42.35c0,8.22,0.96,13.81,2.95,17.08c3.9,9.42,16.96,14,37.99,14
			c8.78,0,18.17-1.2,26.33-3.61c9.53-2.9,14.35-12.14,14.35-27.46v-40.68C385.85,235.23,385.26,229.99,384.1,225.08 M367.71,234.53
			v53.76c0,2.34,0,9.45-18.22,9.45h-8.79c-18.21,0-18.21-7.11-18.21-9.45V233.7c0-2.33,0-9.45,18.21-9.45h8.79
			C367.71,224.25,367.71,231.72,367.71,234.53"/>
		<path d="M178.08,362.93c-6.23-7.26-17.72-10.79-35.12-10.79c-12.26,0-22.26,1.88-29.69,5.59c-7.12,3.44-10.58,11.89-10.58,25.79
			v71.47h17.45V411.4h45.64v43.59h16.62v-75.94c0-5.6-1.34-10.87-3.98-15.64L178.08,362.93z M140.33,366.96h4.35
			c8.82,0.31,13.73,0.88,15.95,1.87c3.63,1.61,5.15,4.62,5.15,19.15v8.6h-45.64v-19.19C120.15,374.8,120.15,366.96,140.33,366.96"/>
		<polygon points="389.45,455.15 389.63,455.1 340.75,394.58 383.64,352.7 361.75,352.7 322.78,388.94 322.78,351.94 305.19,351.94 
			305.17,351.93 305.17,351.94 305.17,455.15 322.78,455.15 322.78,412.12 329.48,405.57 368.82,455.15 		"/>
	</g>
</g>
</svg>
