<?xml version="1.0" standalone="no"?>
<!DOCTYPE svg PUBLIC "-//W3C//DTD SVG 20010904//EN"
 "http://www.w3.org/TR/2001/REC-SVG-20010904/DTD/svg10.dtd">
<svg version="1.0" xmlns="http://www.w3.org/2000/svg"
 width="1100.000000pt" height="1100.000000pt" viewBox="0 0 1100.000000 1100.000000"
 preserveAspectRatio="xMidYMid meet">
<metadata>
Created by potrace 1.11, written by Peter Selinger 2001-2013
</metadata>
<g transform="translate(0.000000,1100.000000) scale(0.100000,-0.100000)"
fill="#000000" stroke="none">
<path d="M2735 9962 c-1 -1 -36 -5 -76 -7 -142 -8 -364 -30 -364 -35 0 -1 -20
-3 -45 -6 -25 -2 -130 -22 -235 -44 -104 -22 -199 -42 -210 -44 -11 -2 -35 -9
-52 -14 -18 -6 -33 -8 -33 -5 0 3 -7 0 -15 -7 -8 -7 -15 -9 -15 -5 0 4 -6 3
-12 -3 -7 -6 -17 -11 -23 -11 -43 -4 -219 -74 -333 -133 -105 -55 -135 -71
-142 -78 -3 -3 -25 -19 -50 -35 -123 -83 -248 -262 -320 -460 -28 -76 -87
-279 -95 -325 -4 -19 -8 -39 -9 -45 -2 -5 -6 -30 -10 -55 -11 -65 -14 -85 -16
-85 -1 0 -3 -13 -4 -30 -2 -16 -7 -66 -12 -110 -11 -101 -11 -433 1 -545 5
-47 10 -96 11 -110 1 -14 3 -25 4 -25 1 0 3 -11 6 -25 5 -35 17 -93 21 -107 1
-7 5 -19 6 -25 2 -7 7 -26 11 -43 4 -16 14 -47 22 -68 8 -20 14 -39 14 -42 2
-18 28 -76 66 -150 81 -158 204 -303 336 -397 58 -42 291 -168 309 -168 4 0
20 -5 36 -12 15 -6 33 -12 38 -14 6 -2 61 -21 123 -43 61 -22 112 -38 112 -35
0 2 14 -2 30 -11 17 -9 30 -13 30 -9 0 4 6 1 13 -5 8 -6 16 -8 19 -6 3 3 25
-1 49 -9 24 -8 55 -17 69 -20 14 -2 45 -9 70 -15 25 -7 54 -13 65 -15 11 -2
45 -9 75 -16 30 -6 69 -14 85 -16 17 -3 41 -7 55 -11 14 -3 36 -7 50 -9 14 -1
52 -7 85 -13 33 -6 77 -13 99 -16 21 -2 46 -6 55 -9 9 -2 47 -8 86 -11 38 -4
72 -8 75 -10 3 -2 39 -6 80 -9 74 -6 116 -11 208 -22 47 -5 164 -15 215 -18
15 0 27 -3 27 -6 0 -3 17 -5 38 -6 52 -1 177 -13 193 -18 8 -3 34 -8 59 -11
25 -3 59 -8 77 -11 17 -2 43 -8 56 -13 14 -6 27 -8 29 -6 2 2 37 -5 78 -16 41
-11 81 -21 88 -21 6 -1 12 -5 12 -10 0 -5 4 -7 9 -4 17 11 248 -83 263 -107 4
-7 8 -9 8 -4 0 19 156 -98 223 -168 91 -95 166 -240 183 -356 20 -140 25 -379
10 -489 -3 -25 -8 -63 -11 -85 -3 -22 -7 -50 -10 -62 -3 -13 -7 -32 -9 -42
-15 -68 -40 -141 -48 -141 -5 0 -7 -4 -4 -8 10 -17 -83 -158 -137 -209 -76
-71 -221 -138 -377 -174 -25 -6 -54 -13 -65 -16 -11 -3 -30 -5 -42 -6 -13 -1
-23 -4 -23 -8 0 -4 -6 -6 -12 -6 -14 2 -139 -12 -173 -19 -69 -13 -321 -17
-1183 -18 l-972 -1 -1 35 c0 19 0 292 -1 607 0 557 0 573 -19 598 -11 14 -27
25 -35 25 -8 0 -14 4 -14 9 0 11 -108 84 -190 128 -59 33 -180 84 -245 103
-22 7 -44 15 -50 18 -5 3 -16 7 -25 8 -8 1 -49 12 -90 23 -83 22 -130 32 -175
36 -16 2 -30 4 -30 5 0 1 -12 3 -27 4 l-27 3 0 -2419 c0 -1330 3 -2418 7
-2419 9 -1 871 -1 898 0 l22 1 0 1203 c1 661 1 1220 1 1242 l1 40 928 1 c833
1 1037 4 1152 19 19 3 60 7 90 10 102 9 142 14 168 19 15 3 47 8 72 11 25 3
54 7 65 9 37 7 110 19 125 21 25 3 214 45 249 55 19 5 37 7 42 5 4 -3 10 -1
13 4 3 5 22 12 42 16 20 3 44 10 53 15 9 5 46 19 84 30 117 37 337 156 337
183 0 5 3 8 6 4 10 -9 121 96 198 188 124 147 232 353 251 477 3 18 9 53 15
78 6 25 12 59 14 75 2 17 9 59 15 95 5 36 13 93 16 127 3 34 8 72 10 84 6 33
18 290 18 389 0 83 -10 266 -18 325 -4 34 -16 110 -19 128 -2 7 -6 30 -10 52
-10 53 -65 217 -77 230 -5 5 -9 15 -9 22 0 14 -67 121 -108 172 -106 133 -271
264 -452 358 -69 36 -247 117 -260 119 -3 0 -23 8 -45 18 -22 10 -44 19 -50
20 -5 2 -17 6 -25 9 -87 35 -268 87 -355 102 -11 2 -72 12 -135 24 -63 11
-128 22 -145 24 -16 3 -46 8 -65 11 -19 3 -53 8 -75 11 -22 3 -58 7 -80 10
-22 3 -58 7 -80 10 -22 2 -58 7 -80 11 -22 3 -58 7 -80 9 -65 6 -138 15 -170
20 -16 3 -55 8 -85 11 -30 3 -66 7 -80 10 -14 2 -47 7 -75 9 -27 3 -61 8 -75
11 -14 3 -41 7 -60 9 -19 2 -48 6 -65 9 -16 3 -48 7 -70 11 -23 3 -52 8 -65
10 -54 11 -86 17 -105 19 -33 5 -135 26 -225 48 -47 11 -89 21 -95 22 -5 1
-36 10 -67 19 -32 10 -60 18 -63 18 -10 0 -141 51 -195 76 -62 28 -148 87
-168 114 -7 10 -19 24 -27 32 -18 19 -89 147 -81 147 4 0 2 8 -3 19 -32 59
-36 714 -6 851 4 14 8 35 11 48 8 41 47 136 61 150 7 7 13 17 13 21 0 9 94
107 126 132 11 9 36 24 55 35 19 10 36 22 39 25 5 6 170 73 180 74 3 0 11 4
18 8 6 5 12 5 12 1 0 -3 7 -1 15 6 9 7 18 10 22 7 3 -4 11 -3 17 2 6 5 30 11
54 15 24 3 47 8 51 10 4 3 30 8 57 11 27 4 56 8 64 10 8 3 40 7 71 10 31 3 78
8 105 11 53 7 784 12 797 6 4 -2 83 -5 175 -7 162 -4 341 -9 697 -20 170 -6
382 -12 700 -20 94 -3 203 -7 243 -9 49 -2 72 0 73 8 1 6 2 165 3 354 1 224
-2 342 -9 343 -5 0 -17 2 -26 4 -13 2 -84 7 -323 21 -162 9 -237 14 -311 19
-44 3 -125 8 -180 10 -55 3 -138 7 -185 10 -47 3 -125 7 -175 10 -49 2 -128 7
-175 10 -149 9 -313 18 -367 18 -29 1 -53 5 -53 10 0 4 -5 5 -11 1 -7 -4 -39
-6 -73 -4 -83 4 -627 6 -631 2z"/>
<path d="M9736 7152 c-2 -4 -7 -23 -10 -42 -3 -19 -8 -45 -10 -56 -2 -12 -7
-37 -10 -55 -3 -19 -8 -45 -11 -59 -3 -14 -8 -36 -11 -50 -13 -75 -39 -214
-49 -265 -8 -40 -43 -232 -49 -268 -3 -15 -7 -35 -10 -45 -3 -9 -8 -33 -11
-52 -3 -19 -12 -71 -20 -115 -9 -44 -18 -91 -20 -105 -2 -14 -4 -25 -5 -25 -1
0 -3 -11 -5 -25 -4 -28 -10 -61 -60 -320 -20 -102 -38 -196 -40 -210 -2 -14
-12 -72 -24 -130 -21 -109 -31 -161 -37 -195 -1 -11 -5 -30 -8 -41 -2 -12 -7
-39 -10 -60 -4 -22 -11 -55 -16 -74 -4 -19 -11 -54 -14 -77 -3 -22 -8 -52 -10
-65 -3 -12 -8 -35 -11 -50 -3 -16 -7 -40 -10 -55 -3 -16 -17 -86 -30 -158 -14
-71 -27 -141 -30 -155 -3 -14 -7 -36 -10 -50 -2 -14 -7 -41 -11 -60 -4 -19 -7
-45 -7 -57 1 -13 -4 -23 -10 -23 -6 0 -8 -2 -5 -5 3 -4 1 -25 -4 -48 -5 -23
-11 -55 -13 -72 -2 -16 -6 -41 -9 -55 -9 -39 -15 -73 -21 -105 -3 -16 -7 -41
-10 -55 -3 -14 -8 -38 -11 -55 -4 -16 -7 -42 -8 -57 0 -16 -4 -28 -8 -28 -4 0
-6 -8 -6 -17 1 -20 -5 -54 -27 -158 -9 -38 -16 -77 -17 -85 0 -8 -15 -91 -33
-185 -18 -93 -36 -186 -39 -205 -3 -19 -7 -44 -10 -55 -2 -11 -12 -60 -21
-110 -17 -90 -20 -108 -30 -155 -3 -14 -8 -41 -11 -60 -4 -19 -8 -44 -11 -55
-12 -57 -21 -121 -17 -126 2 -5 30 -12 124 -34 3 -1 19 -4 35 -8 17 -4 39 -9
50 -11 11 -3 59 -13 107 -24 l87 -20 12 52 c7 28 14 54 15 59 1 4 3 9 4 12 3
6 4 9 14 60 4 22 11 44 14 50 3 5 7 16 8 25 1 8 21 85 44 170 23 85 43 164 45
175 1 11 15 64 30 118 14 53 28 105 30 115 2 9 20 80 40 157 21 77 39 147 40
155 2 8 4 15 5 15 1 0 3 7 5 15 1 8 11 44 20 80 9 36 19 72 21 80 2 8 8 33 14
55 6 22 13 51 16 65 2 14 10 41 16 60 6 19 11 36 10 37 0 2 10 41 23 88 13 47
24 89 24 93 1 4 6 25 12 47 6 22 13 51 16 65 2 13 8 29 14 36 5 6 7 13 4 16
-3 2 0 20 6 39 5 19 12 42 14 52 2 10 7 27 10 37 3 10 7 27 9 37 2 10 9 38 16
63 7 25 13 50 14 55 1 6 5 16 9 23 5 6 6 12 3 12 -2 0 0 15 5 33 25 84 120
457 121 475 1 6 5 12 10 12 5 0 7 4 4 8 -3 5 6 49 20 98 13 49 27 102 30 118
2 16 7 33 10 38 3 4 7 16 9 25 2 10 17 72 35 138 17 66 35 136 40 155 4 19 20
80 35 135 15 55 29 111 32 125 2 14 17 72 33 130 36 136 43 162 46 180 2 8 12
49 24 90 25 90 25 89 43 167 15 60 14 62 -9 97 -13 19 -24 38 -24 41 0 11
-117 149 -167 196 -110 106 -245 195 -375 247 -15 6 -29 8 -32 4z"/>
<path d="M6798 5995 c-2 -1 -34 -5 -73 -9 -84 -7 -151 -15 -185 -22 -14 -3
-50 -9 -80 -14 -74 -13 -151 -51 -207 -103 -89 -82 -129 -170 -152 -332 -8
-62 -6 -1075 3 -1130 8 -49 14 -79 16 -82 2 -2 4 -7 5 -13 1 -5 3 -11 5 -12 1
-2 3 -10 5 -18 1 -8 12 -31 24 -50 11 -19 24 -41 27 -48 10 -19 64 -72 75 -72
5 0 9 -4 9 -10 0 -5 6 -10 14 -10 8 0 16 -4 18 -8 5 -14 95 -51 170 -71 120
-33 168 -39 330 -46 54 -2 102 -6 108 -10 5 -3 10 -3 10 2 0 4 35 8 78 9 42 0
102 3 132 7 30 4 75 10 99 12 24 3 52 7 62 10 9 3 26 7 36 9 188 37 283 106
344 249 15 37 26 67 23 67 -2 0 0 8 5 18 21 38 25 158 25 667 0 671 -3 695
-113 823 -11 12 -22 22 -26 22 -3 0 -14 8 -25 18 -33 31 -149 84 -220 102
-114 29 -218 41 -372 44 -92 2 -168 2 -170 1z m327 -299 c120 -16 205 -63 227
-126 14 -41 19 -1119 5 -1185 -9 -44 -54 -94 -102 -113 -70 -28 -173 -38 -360
-36 -201 2 -273 11 -342 45 -68 33 -86 68 -93 172 -3 49 -2 91 3 94 4 2 5 8 2
12 -4 7 -6 72 -4 121 0 8 -1 32 -3 53 -3 21 -1 40 4 43 4 3 4 14 -2 24 -7 13
-7 21 0 25 6 4 8 11 4 16 -5 8 -6 69 -3 159 0 8 -1 32 -3 53 -3 21 -1 40 4 43
4 3 4 14 -2 24 -7 13 -7 21 0 25 6 4 8 11 4 16 -5 8 -6 69 -3 159 0 8 -1 32
-3 53 -3 21 -1 40 4 43 4 3 4 13 -2 23 -5 10 -6 21 -3 25 4 4 6 24 4 46 -7
104 79 169 249 186 30 4 56 7 57 8 5 5 313 -2 358 -8z"/>
<path d="M2710 3139 c-174 -15 -293 -42 -405 -94 -69 -32 -145 -92 -145 -114
0 -6 -3 -11 -8 -11 -6 0 -36 -56 -37 -70 0 -3 -3 -9 -6 -15 -6 -9 -12 -30 -26
-95 -2 -8 -6 -28 -9 -45 -4 -16 -7 -384 -9 -817 l-2 -788 26 -1 c32 -1 302 -1
316 0 7 1 10 152 10 433 0 406 1 433 18 432 9 -1 17 1 17 5 0 5 76 6 90 1 14
-6 37 -5 51 2 8 3 21 3 29 -2 8 -5 22 -4 32 1 12 7 18 6 18 -1 0 -6 4 -8 10
-5 14 9 90 12 90 3 0 -3 14 -3 30 2 17 5 30 5 30 1 0 -4 20 -5 45 -1 25 4 45
3 45 -1 0 -5 8 -5 17 -2 16 6 63 8 81 3 19 -6 38 -5 53 2 8 3 21 3 29 -2 8 -5
22 -4 32 1 12 7 18 6 18 -1 0 -6 4 -8 10 -5 15 9 90 12 90 3 0 -4 10 -4 23 1
53 20 53 23 52 -442 l0 -427 33 -1 c42 -1 279 -1 291 0 5 1 8 334 7 819 -3
887 0 837 -62 977 -43 99 -210 199 -384 230 -151 28 -343 37 -500 24z m389
-302 c199 -24 219 -61 225 -414 2 -143 1 -163 -13 -164 -9 0 -214 -1 -456 -1
l-440 -1 -2 199 c-1 109 3 216 8 236 19 75 103 128 228 144 19 2 36 6 38 8 5
5 360 -1 412 -7z"/>
<path d="M6113 2121 c0 -734 3 -1031 11 -1034 6 -2 85 -3 176 -3 l165 1 0 431
0 431 70 67 c44 43 71 63 74 54 2 -7 16 -27 30 -43 14 -17 40 -48 56 -69 17
-21 35 -44 40 -50 6 -6 24 -29 40 -51 17 -22 37 -49 47 -60 17 -21 83 -103 96
-120 49 -64 79 -102 90 -113 7 -8 25 -30 40 -50 15 -21 32 -42 37 -49 6 -6 21
-26 35 -44 14 -18 31 -38 38 -45 6 -7 12 -15 12 -19 0 -3 11 -16 25 -29 14
-13 25 -27 25 -31 0 -4 9 -17 20 -29 27 -29 120 -147 130 -165 11 -21 420 -24
420 -4 0 7 -4 13 -10 13 -5 0 -10 5 -10 10 0 6 -9 21 -21 33 -11 12 -39 46
-62 76 -23 30 -57 71 -74 90 -18 20 -33 39 -33 42 0 3 -10 17 -22 31 -26 29
-47 53 -103 123 -22 28 -44 55 -50 62 -5 6 -20 24 -32 40 -12 15 -31 39 -42
53 -11 14 -24 30 -28 35 -32 40 -138 171 -143 175 -3 3 -18 23 -35 45 -16 22
-32 42 -35 45 -5 4 -36 42 -100 123 -8 11 -20 24 -26 31 -25 27 -134 168 -134
173 0 4 47 52 104 107 58 56 242 236 411 401 168 165 311 302 316 303 5 2 9 9
9 16 0 8 -55 11 -213 11 l-214 0 -32 -30 c-17 -17 -53 -50 -80 -75 -82 -77
-285 -266 -316 -295 -38 -34 -211 -194 -283 -262 -31 -29 -58 -53 -61 -53 -4
0 -6 163 -6 363 l0 362 -176 3 -175 2 -1 -1029z"/>
<path d="M4857 3134 c-1 -1 -51 -5 -112 -8 -60 -3 -121 -8 -135 -10 -14 -3
-42 -7 -63 -10 -99 -15 -267 -76 -267 -97 0 -4 -8 -10 -17 -13 -18 -6 -75 -59
-114 -106 -48 -58 -97 -181 -107 -270 -7 -65 -6 -979 1 -1030 15 -103 69 -223
129 -288 47 -50 96 -92 107 -92 5 0 11 -4 13 -8 11 -28 249 -97 348 -101 8 0
42 -3 75 -7 120 -12 435 -7 625 10 25 3 77 7 115 10 146 12 221 18 255 21 19
2 46 4 60 4 l25 1 0 141 0 142 -368 1 c-202 0 -367 -3 -367 -7 0 -4 -9 -3 -20
3 -11 6 -20 7 -20 2 0 -5 -18 -6 -40 -2 -22 4 -40 3 -40 -2 0 -5 -9 -4 -19 2
-14 7 -22 7 -26 0 -4 -6 -10 -8 -14 -5 -5 2 -51 7 -104 10 -141 8 -268 55
-311 117 -36 50 -39 97 -40 543 -2 613 -6 596 164 674 76 34 156 39 673 39
281 0 517 1 522 1 6 1 10 53 10 139 0 130 -1 137 -20 139 -11 1 -47 4 -80 7
-33 3 -85 8 -115 10 -30 3 -91 8 -135 11 -44 3 -100 8 -125 10 -99 11 -456 25
-463 19z"/>
<path d="M8715 1798 c-186 -58 -296 -207 -290 -393 2 -69 21 -143 40 -157 5
-4 6 -8 1 -8 -10 0 35 -61 78 -107 17 -17 34 -29 38 -27 4 3 8 1 8 -4 0 -15
100 -60 155 -69 74 -14 165 -4 216 23 15 7 29 10 33 7 3 -4 6 -1 6 5 0 6 8 13
18 16 25 9 75 55 115 108 85 113 96 278 27 410 -11 22 -27 46 -35 54 -7 7 -15
17 -17 21 -4 10 -85 74 -115 91 -69 38 -205 53 -278 30z"/>
</g>
</svg>
